<?xml version="1.0" encoding="UTF-8" standalone="no"?>
<!DOCTYPE svg PUBLIC "-//W3C//DTD SVG 1.1//EN"
 "http://www.w3.org/Graphics/SVG/1.1/DTD/svg11.dtd">
<!-- Generated by graphviz version 2.43.0 (0)
 -->
<!-- Title: %3 Pages: 1 -->
<svg width="734pt" height="332pt"
 viewBox="0.00 0.00 734.13 332.00" xmlns="http://www.w3.org/2000/svg" xmlns:xlink="http://www.w3.org/1999/xlink">
<g id="graph0" class="graph" transform="scale(1 1) rotate(0) translate(4 328)">
<title>%3</title>
<polygon fill="white" stroke="transparent" points="-4,4 -4,-328 730.13,-328 730.13,4 -4,4"/>
<!-- [root] docker_container.nginx (expand) -->
<g id="node1" class="node">
<title>[root] docker_container.nginx (expand)</title>
<polygon fill="none" stroke="black" points="454.07,-180 272.07,-180 272.07,-144 454.07,-144 454.07,-180"/>
<text text-anchor="middle" x="363.07" y="-158.3" font-family="Times,serif" font-size="14.00">docker_container.nginx</text>
</g>
<!-- [root] docker_image.nginx (expand) -->
<g id="node2" class="node">
<title>[root] docker_image.nginx (expand)</title>
<polygon fill="none" stroke="black" points="442.57,-108 283.57,-108 283.57,-72 442.57,-72 442.57,-108"/>
<text text-anchor="middle" x="363.07" y="-86.3" font-family="Times,serif" font-size="14.00">docker_image.nginx</text>
</g>
<!-- [root] docker_container.nginx (expand)&#45;&gt;[root] docker_image.nginx (expand) -->
<g id="edge1" class="edge">
<title>[root] docker_container.nginx (expand)&#45;&gt;[root] docker_image.nginx (expand)</title>
<path fill="none" stroke="black" d="M363.07,-143.7C363.07,-135.98 363.07,-126.71 363.07,-118.11"/>
<polygon fill="black" stroke="black" points="366.57,-118.1 363.07,-108.1 359.57,-118.1 366.57,-118.1"/>
</g>
<!-- [root] provider[&quot;registry.terraform.io/kreuzwerker/docker&quot;] -->
<g id="node3" class="node">
<title>[root] provider[&quot;registry.terraform.io/kreuzwerker/docker&quot;]</title>
<polygon fill="none" stroke="black" points="363.07,-36 -0.07,-18 363.07,0 726.2,-18 363.07,-36"/>
<text text-anchor="middle" x="363.07" y="-14.3" font-family="Times,serif" font-size="14.00">provider[&quot;registry.terraform.io/kreuzwerker/docker&quot;]</text>
</g>
<!-- [root] docker_image.nginx (expand)&#45;&gt;[root] provider[&quot;registry.terraform.io/kreuzwerker/docker&quot;] -->
<g id="edge2" class="edge">
<title>[root] docker_image.nginx (expand)&#45;&gt;[root] provider[&quot;registry.terraform.io/kreuzwerker/docker&quot;]</title>
<path fill="none" stroke="black" d="M363.07,-71.7C363.07,-63.98 363.07,-54.71 363.07,-46.11"/>
<polygon fill="black" stroke="black" points="366.57,-46.1 363.07,-36.1 359.57,-46.1 366.57,-46.1"/>
</g>
<!-- [root] provider[&quot;registry.terraform.io/kreuzwerker/docker&quot;] (close) -->
<g id="node4" class="node">
<title>[root] provider[&quot;registry.terraform.io/kreuzwerker/docker&quot;] (close)</title>
<ellipse fill="none" stroke="black" cx="363.07" cy="-234" rx="318.44" ry="18"/>
<text text-anchor="middle" x="363.07" y="-230.3" font-family="Times,serif" font-size="14.00">[root] provider[&quot;registry.terraform.io/kreuzwerker/docker&quot;] (close)</text>
</g>
<!-- [root] provider[&quot;registry.terraform.io/kreuzwerker/docker&quot;] (close)&#45;&gt;[root] docker_container.nginx (expand) -->
<g id="edge3" class="edge">
<title>[root] provider[&quot;registry.terraform.io/kreuzwerker/docker&quot;] (close)&#45;&gt;[root] docker_container.nginx (expand)</title>
<path fill="none" stroke="black" d="M363.07,-215.7C363.07,-207.98 363.07,-198.71 363.07,-190.11"/>
<polygon fill="black" stroke="black" points="366.57,-190.1 363.07,-180.1 359.57,-190.1 366.57,-190.1"/>
</g>
<!-- [root] root -->
<g id="node5" class="node">
<title>[root] root</title>
<ellipse fill="none" stroke="black" cx="363.07" cy="-306" rx="58.49" ry="18"/>
<text text-anchor="middle" x="363.07" y="-302.3" font-family="Times,serif" font-size="14.00">[root] root</text>
</g>
<!-- [root] root&#45;&gt;[root] provider[&quot;registry.terraform.io/kreuzwerker/docker&quot;] (close) -->
<g id="edge4" class="edge">
<title>[root] root&#45;&gt;[root] provider[&quot;registry.terraform.io/kreuzwerker/docker&quot;] (close)</title>
<path fill="none" stroke="black" d="M363.07,-287.7C363.07,-279.98 363.07,-270.71 363.07,-262.11"/>
<polygon fill="black" stroke="black" points="366.57,-262.1 363.07,-252.1 359.57,-262.1 366.57,-262.1"/>
</g>
</g>
</svg>
